<mxfile host="app.diagrams.net" agent="Mozilla/5.0 (Windows NT 10.0; Win64; x64) AppleWebKit/537.36 (KHTML, like Gecko) Chrome/140.0.0.0 Safari/537.36" version="28.2.0">
  <diagram name="Página-1" id="ZksGCs6FcOAs1dgD00pY">
    <mxGraphModel dx="1025" dy="452" grid="1" gridSize="10" guides="1" tooltips="1" connect="1" arrows="1" fold="1" page="1" pageScale="1" pageWidth="827" pageHeight="1169" math="0" shadow="0">
      <root>
        <mxCell id="0" />
        <mxCell id="1" parent="0" />
        <mxCell id="_B3-2DzSDXJgo78Otyxh-1" value="Escreva um programa que pergunte a velocidade de um carro. Caso ultrapasse&#xa;80Km/h, exiba uma mensagem dizendo que o usuário foi multado. Nesse caso, exiba&#xa;o valor da multa, cobrando R$5 por cada Km acima da velocidade permitida." style="text;whiteSpace=wrap;html=1;" vertex="1" parent="1">
          <mxGeometry x="10" width="490" height="70" as="geometry" />
        </mxCell>
        <mxCell id="_B3-2DzSDXJgo78Otyxh-2" value="Entrada: Receber a velocidade de um carro&#xa;Processamento: Verificar se a velocidade é maior ou menor que 80km/h&#xa;Saída:Exibir mensagem ao usuário conforme enunciado" style="text;whiteSpace=wrap;html=1;" vertex="1" parent="1">
          <mxGeometry x="470" width="420" height="70" as="geometry" />
        </mxCell>
        <mxCell id="_B3-2DzSDXJgo78Otyxh-5" value="" style="edgeStyle=orthogonalEdgeStyle;rounded=0;orthogonalLoop=1;jettySize=auto;html=1;" edge="1" parent="1" source="_B3-2DzSDXJgo78Otyxh-3" target="_B3-2DzSDXJgo78Otyxh-4">
          <mxGeometry relative="1" as="geometry" />
        </mxCell>
        <mxCell id="_B3-2DzSDXJgo78Otyxh-3" value="Início" style="strokeWidth=2;html=1;shape=mxgraph.flowchart.start_1;whiteSpace=wrap;" vertex="1" parent="1">
          <mxGeometry x="30" y="70" width="100" height="60" as="geometry" />
        </mxCell>
        <mxCell id="_B3-2DzSDXJgo78Otyxh-7" value="" style="edgeStyle=orthogonalEdgeStyle;rounded=0;orthogonalLoop=1;jettySize=auto;html=1;" edge="1" parent="1" source="_B3-2DzSDXJgo78Otyxh-4" target="_B3-2DzSDXJgo78Otyxh-6">
          <mxGeometry relative="1" as="geometry" />
        </mxCell>
        <mxCell id="_B3-2DzSDXJgo78Otyxh-4" value="Informe a velocidade&amp;nbsp;&lt;div&gt;do veículo&lt;/div&gt;&lt;div&gt;(Km)&lt;/div&gt;" style="shape=parallelogram;perimeter=parallelogramPerimeter;whiteSpace=wrap;html=1;fixedSize=1;strokeWidth=2;" vertex="1" parent="1">
          <mxGeometry x="10" y="170" width="140" height="60" as="geometry" />
        </mxCell>
        <mxCell id="_B3-2DzSDXJgo78Otyxh-12" value="" style="edgeStyle=orthogonalEdgeStyle;rounded=0;orthogonalLoop=1;jettySize=auto;html=1;" edge="1" parent="1" source="_B3-2DzSDXJgo78Otyxh-6" target="_B3-2DzSDXJgo78Otyxh-11">
          <mxGeometry relative="1" as="geometry" />
        </mxCell>
        <mxCell id="_B3-2DzSDXJgo78Otyxh-17" value="" style="edgeStyle=orthogonalEdgeStyle;rounded=0;orthogonalLoop=1;jettySize=auto;html=1;" edge="1" parent="1" source="_B3-2DzSDXJgo78Otyxh-6" target="_B3-2DzSDXJgo78Otyxh-16">
          <mxGeometry relative="1" as="geometry" />
        </mxCell>
        <mxCell id="_B3-2DzSDXJgo78Otyxh-6" value="km &amp;gt; 80" style="rhombus;whiteSpace=wrap;html=1;strokeWidth=2;" vertex="1" parent="1">
          <mxGeometry x="210" y="160" width="130" height="80" as="geometry" />
        </mxCell>
        <mxCell id="_B3-2DzSDXJgo78Otyxh-15" value="" style="edgeStyle=orthogonalEdgeStyle;rounded=0;orthogonalLoop=1;jettySize=auto;html=1;" edge="1" parent="1" target="_B3-2DzSDXJgo78Otyxh-14">
          <mxGeometry relative="1" as="geometry">
            <mxPoint x="336" y="330" as="sourcePoint" />
          </mxGeometry>
        </mxCell>
        <mxCell id="_B3-2DzSDXJgo78Otyxh-11" value="Calcular valor da&amp;nbsp;&lt;div&gt;multa&lt;/div&gt;&lt;div&gt;multa = km * 5&lt;/div&gt;&lt;div&gt;&lt;br&gt;&lt;/div&gt;" style="whiteSpace=wrap;html=1;strokeWidth=2;" vertex="1" parent="1">
          <mxGeometry x="215" y="290" width="120" height="60" as="geometry" />
        </mxCell>
        <mxCell id="_B3-2DzSDXJgo78Otyxh-13" value="Sim" style="text;html=1;align=center;verticalAlign=middle;resizable=0;points=[];autosize=1;strokeColor=none;fillColor=none;" vertex="1" parent="1">
          <mxGeometry x="270" y="248" width="40" height="30" as="geometry" />
        </mxCell>
        <mxCell id="_B3-2DzSDXJgo78Otyxh-14" value="Você foi multado&lt;div&gt;valor (multa)&amp;nbsp;&lt;/div&gt;" style="shape=document;whiteSpace=wrap;html=1;boundedLbl=1;strokeWidth=2;" vertex="1" parent="1">
          <mxGeometry x="390" y="290" width="120" height="80" as="geometry" />
        </mxCell>
        <mxCell id="_B3-2DzSDXJgo78Otyxh-19" style="edgeStyle=orthogonalEdgeStyle;rounded=0;orthogonalLoop=1;jettySize=auto;html=1;" edge="1" parent="1" source="_B3-2DzSDXJgo78Otyxh-16" target="_B3-2DzSDXJgo78Otyxh-18">
          <mxGeometry relative="1" as="geometry" />
        </mxCell>
        <mxCell id="_B3-2DzSDXJgo78Otyxh-16" value="Dentro da velocidade permitida" style="shape=document;whiteSpace=wrap;html=1;boundedLbl=1;strokeWidth=2;" vertex="1" parent="1">
          <mxGeometry x="390" y="160" width="120" height="80" as="geometry" />
        </mxCell>
        <mxCell id="_B3-2DzSDXJgo78Otyxh-18" value="" style="verticalLabelPosition=bottom;verticalAlign=top;html=1;shape=mxgraph.flowchart.on-page_reference;" vertex="1" parent="1">
          <mxGeometry x="570" y="248" width="20" height="20" as="geometry" />
        </mxCell>
        <mxCell id="_B3-2DzSDXJgo78Otyxh-20" style="edgeStyle=orthogonalEdgeStyle;rounded=0;orthogonalLoop=1;jettySize=auto;html=1;entryX=0.5;entryY=1;entryDx=0;entryDy=0;entryPerimeter=0;" edge="1" parent="1" source="_B3-2DzSDXJgo78Otyxh-14" target="_B3-2DzSDXJgo78Otyxh-18">
          <mxGeometry relative="1" as="geometry" />
        </mxCell>
        <mxCell id="_B3-2DzSDXJgo78Otyxh-21" value="Fim" style="strokeWidth=2;html=1;shape=mxgraph.flowchart.terminator;whiteSpace=wrap;" vertex="1" parent="1">
          <mxGeometry x="650" y="233" width="100" height="60" as="geometry" />
        </mxCell>
        <mxCell id="_B3-2DzSDXJgo78Otyxh-22" style="edgeStyle=orthogonalEdgeStyle;rounded=0;orthogonalLoop=1;jettySize=auto;html=1;entryX=-0.021;entryY=0.398;entryDx=0;entryDy=0;entryPerimeter=0;" edge="1" parent="1" source="_B3-2DzSDXJgo78Otyxh-18" target="_B3-2DzSDXJgo78Otyxh-21">
          <mxGeometry relative="1" as="geometry" />
        </mxCell>
      </root>
    </mxGraphModel>
  </diagram>
</mxfile>
